<mxfile host="Electron" agent="Mozilla/5.0 (Windows NT 10.0; Win64; x64) AppleWebKit/537.36 (KHTML, like Gecko) draw.io/26.2.2 Chrome/134.0.6998.178 Electron/35.1.2 Safari/537.36" version="26.2.2">
  <diagram name="Page-1" id="_EyEdTqAdG49vRt3QMX1">
    <mxGraphModel dx="720" dy="1610" grid="1" gridSize="10" guides="1" tooltips="1" connect="1" arrows="1" fold="1" page="1" pageScale="1" pageWidth="850" pageHeight="1100" math="0" shadow="0">
      <root>
        <mxCell id="0" />
        <mxCell id="1" parent="0" />
        <mxCell id="uxvyhHdNxwt4XzxNapbn-2" value="" style="group" parent="1" vertex="1" connectable="0">
          <mxGeometry x="35" y="-1025" width="547" height="563" as="geometry" />
        </mxCell>
        <mxCell id="uxvyhHdNxwt4XzxNapbn-3" value="" style="rounded=0;whiteSpace=wrap;html=1;fillColor=#fff2cc;strokeColor=#d6b656;" parent="uxvyhHdNxwt4XzxNapbn-2" vertex="1">
          <mxGeometry x="55" y="56" width="200" height="230" as="geometry" />
        </mxCell>
        <mxCell id="uxvyhHdNxwt4XzxNapbn-4" value="" style="rounded=0;whiteSpace=wrap;html=1;rotation=90;fillColor=#f5f5f5;fontColor=#333333;strokeColor=#666666;" parent="uxvyhHdNxwt4XzxNapbn-2" vertex="1">
          <mxGeometry x="100.29999999999995" y="243.71000000000004" width="51.8" height="142.38" as="geometry" />
        </mxCell>
        <mxCell id="uxvyhHdNxwt4XzxNapbn-5" value="Entry Gate" style="shape=process;whiteSpace=wrap;html=1;backgroundOutline=1;" parent="uxvyhHdNxwt4XzxNapbn-2" vertex="1">
          <mxGeometry x="55" y="276" width="120" height="10" as="geometry" />
        </mxCell>
        <mxCell id="uxvyhHdNxwt4XzxNapbn-6" value="E" style="text;html=1;align=center;verticalAlign=middle;whiteSpace=wrap;rounded=0;" parent="uxvyhHdNxwt4XzxNapbn-2" vertex="1">
          <mxGeometry x="9" y="294" width="30" height="30" as="geometry" />
        </mxCell>
        <mxCell id="uxvyhHdNxwt4XzxNapbn-7" value="Street" style="text;html=1;align=center;verticalAlign=middle;whiteSpace=wrap;rounded=0;" parent="uxvyhHdNxwt4XzxNapbn-2" vertex="1">
          <mxGeometry x="79" y="295" width="60" height="30" as="geometry" />
        </mxCell>
        <mxCell id="uxvyhHdNxwt4XzxNapbn-8" value="Street" style="text;html=1;align=center;verticalAlign=middle;whiteSpace=wrap;rounded=0;" parent="uxvyhHdNxwt4XzxNapbn-2" vertex="1">
          <mxGeometry x="249" y="176" width="60" height="30" as="geometry" />
        </mxCell>
        <mxCell id="uxvyhHdNxwt4XzxNapbn-9" value="Room&lt;div&gt;10x10&lt;/div&gt;" style="rounded=0;whiteSpace=wrap;html=1;" parent="uxvyhHdNxwt4XzxNapbn-2" vertex="1">
          <mxGeometry x="150" y="59" width="102" height="89" as="geometry" />
        </mxCell>
        <mxCell id="uxvyhHdNxwt4XzxNapbn-10" value="Entry Gate" style="shape=process;whiteSpace=wrap;html=1;backgroundOutline=1;rotation=90;" parent="uxvyhHdNxwt4XzxNapbn-2" vertex="1">
          <mxGeometry x="204.3800000000001" y="234.78999999999996" width="88.24" height="10" as="geometry" />
        </mxCell>
        <mxCell id="uxvyhHdNxwt4XzxNapbn-11" value="5x4" style="rounded=0;whiteSpace=wrap;html=1;" parent="uxvyhHdNxwt4XzxNapbn-2" vertex="1">
          <mxGeometry x="200" y="148" width="52" height="40" as="geometry" />
        </mxCell>
        <mxCell id="uxvyhHdNxwt4XzxNapbn-12" value="" style="shape=process;whiteSpace=wrap;html=1;backgroundOutline=1;rotation=0;" parent="uxvyhHdNxwt4XzxNapbn-2" vertex="1">
          <mxGeometry x="149" y="138" width="50" height="10" as="geometry" />
        </mxCell>
        <mxCell id="uxvyhHdNxwt4XzxNapbn-25" value="Street" style="rounded=0;whiteSpace=wrap;html=1;fillColor=#f5f5f5;fontColor=#333333;strokeColor=#666666;" parent="uxvyhHdNxwt4XzxNapbn-2" vertex="1">
          <mxGeometry x="259" y="56" width="40" height="230" as="geometry" />
        </mxCell>
        <mxCell id="uxvyhHdNxwt4XzxNapbn-26" value="Parking&lt;div&gt;10x8&lt;/div&gt;" style="rounded=0;whiteSpace=wrap;html=1;" parent="uxvyhHdNxwt4XzxNapbn-2" vertex="1">
          <mxGeometry x="58" y="178" width="92" height="94.88" as="geometry" />
        </mxCell>
        <mxCell id="uxvyhHdNxwt4XzxNapbn-27" value="Hall&lt;div&gt;12x10&lt;/div&gt;" style="rounded=0;whiteSpace=wrap;html=1;" parent="uxvyhHdNxwt4XzxNapbn-2" vertex="1">
          <mxGeometry x="58" y="59" width="91" height="119" as="geometry" />
        </mxCell>
        <mxCell id="uxvyhHdNxwt4XzxNapbn-28" value="" style="endArrow=none;html=1;rounded=0;entryX=0.99;entryY=0.124;entryDx=0;entryDy=0;entryPerimeter=0;" parent="uxvyhHdNxwt4XzxNapbn-2" edge="1">
          <mxGeometry width="50" height="50" relative="1" as="geometry">
            <mxPoint x="70" y="183" as="sourcePoint" />
            <mxPoint x="140.2900000000002" y="183.48511999999994" as="targetPoint" />
          </mxGeometry>
        </mxCell>
        <mxCell id="uxvyhHdNxwt4XzxNapbn-29" value="" style="endArrow=none;html=1;rounded=0;entryX=0.99;entryY=0.124;entryDx=0;entryDy=0;entryPerimeter=0;" parent="uxvyhHdNxwt4XzxNapbn-2" edge="1">
          <mxGeometry width="50" height="50" relative="1" as="geometry">
            <mxPoint x="69" y="189" as="sourcePoint" />
            <mxPoint x="139.2900000000002" y="189.48511999999994" as="targetPoint" />
          </mxGeometry>
        </mxCell>
        <mxCell id="uxvyhHdNxwt4XzxNapbn-30" value="N" style="text;html=1;align=center;verticalAlign=middle;whiteSpace=wrap;rounded=0;" parent="uxvyhHdNxwt4XzxNapbn-2" vertex="1">
          <mxGeometry x="245" y="280" width="60" height="30" as="geometry" />
        </mxCell>
        <mxCell id="uxvyhHdNxwt4XzxNapbn-31" value="S" style="text;html=1;align=center;verticalAlign=middle;whiteSpace=wrap;rounded=0;" parent="uxvyhHdNxwt4XzxNapbn-2" vertex="1">
          <mxGeometry x="19" y="26" width="60" height="30" as="geometry" />
        </mxCell>
        <mxCell id="uxvyhHdNxwt4XzxNapbn-32" value="Ground Floor" style="text;html=1;align=center;verticalAlign=middle;whiteSpace=wrap;rounded=0;fontStyle=1" parent="uxvyhHdNxwt4XzxNapbn-2" vertex="1">
          <mxGeometry x="125" width="95" height="30" as="geometry" />
        </mxCell>
        <mxCell id="uxvyhHdNxwt4XzxNapbn-33" value="20 ft" style="text;html=1;align=center;verticalAlign=middle;whiteSpace=wrap;rounded=0;" parent="uxvyhHdNxwt4XzxNapbn-2" vertex="1">
          <mxGeometry x="125" y="28" width="60" height="30" as="geometry" />
        </mxCell>
        <mxCell id="uxvyhHdNxwt4XzxNapbn-34" value="22.5 ft" style="text;html=1;align=center;verticalAlign=middle;whiteSpace=wrap;rounded=0;" parent="uxvyhHdNxwt4XzxNapbn-2" vertex="1">
          <mxGeometry x="2" y="154" width="60" height="30" as="geometry" />
        </mxCell>
        <mxCell id="uxvyhHdNxwt4XzxNapbn-35" value="" style="endArrow=classic;startArrow=classic;html=1;rounded=0;" parent="uxvyhHdNxwt4XzxNapbn-2" edge="1">
          <mxGeometry width="50" height="50" relative="1" as="geometry">
            <mxPoint x="59" y="51" as="sourcePoint" />
            <mxPoint x="251" y="49" as="targetPoint" />
          </mxGeometry>
        </mxCell>
        <mxCell id="uxvyhHdNxwt4XzxNapbn-36" value="" style="endArrow=classic;startArrow=classic;html=1;rounded=0;" parent="uxvyhHdNxwt4XzxNapbn-2" edge="1">
          <mxGeometry width="50" height="50" relative="1" as="geometry">
            <mxPoint x="40" y="283" as="sourcePoint" />
            <mxPoint x="40" y="56" as="targetPoint" />
          </mxGeometry>
        </mxCell>
        <mxCell id="uxvyhHdNxwt4XzxNapbn-146" value="" style="shape=process;whiteSpace=wrap;html=1;backgroundOutline=1;rotation=90;container=0;direction=south;" parent="uxvyhHdNxwt4XzxNapbn-2" vertex="1">
          <mxGeometry x="224.19" y="135" width="6" height="32" as="geometry" />
        </mxCell>
        <mxCell id="uxvyhHdNxwt4XzxNapbn-24" value="" style="shape=trapezoid;perimeter=trapezoidPerimeter;whiteSpace=wrap;html=1;fixedSize=1;rotation=60;fillColor=#f5f5f5;fontColor=#333333;strokeColor=#B3B3B3;size=11.25;" parent="uxvyhHdNxwt4XzxNapbn-2" vertex="1">
          <mxGeometry x="201.56999999999994" y="244.12" width="51.25" height="99.32" as="geometry" />
        </mxCell>
        <mxCell id="uxvyhHdNxwt4XzxNapbn-37" value="" style="group" parent="1" vertex="1" connectable="0">
          <mxGeometry x="354" y="-1023.5999999999999" width="449" height="413.24" as="geometry" />
        </mxCell>
        <mxCell id="uxvyhHdNxwt4XzxNapbn-72" value="26 ft" style="text;html=1;align=center;verticalAlign=middle;whiteSpace=wrap;rounded=0;" parent="uxvyhHdNxwt4XzxNapbn-37" vertex="1">
          <mxGeometry x="111" y="157.6" width="60" height="30" as="geometry" />
        </mxCell>
        <mxCell id="uxvyhHdNxwt4XzxNapbn-39" value="" style="rounded=0;whiteSpace=wrap;html=1;fillColor=#fff2cc;strokeColor=#d6b656;container=0;" parent="uxvyhHdNxwt4XzxNapbn-37" vertex="1">
          <mxGeometry x="168" y="55.6" width="225" height="252" as="geometry" />
        </mxCell>
        <mxCell id="uxvyhHdNxwt4XzxNapbn-40" value="" style="rounded=0;whiteSpace=wrap;html=1;rotation=90;fillColor=#f5f5f5;fontColor=#333333;strokeColor=#666666;container=0;" parent="uxvyhHdNxwt4XzxNapbn-37" vertex="1">
          <mxGeometry x="230.57999999999993" y="243.44000000000003" width="37.28" height="169.4" as="geometry" />
        </mxCell>
        <mxCell id="uxvyhHdNxwt4XzxNapbn-41" value="W" style="text;html=1;align=center;verticalAlign=middle;whiteSpace=wrap;rounded=0;container=0;" parent="uxvyhHdNxwt4XzxNapbn-37" vertex="1">
          <mxGeometry x="338" y="14.6" width="60" height="30" as="geometry" />
        </mxCell>
        <mxCell id="uxvyhHdNxwt4XzxNapbn-42" value="Street" style="text;html=1;align=center;verticalAlign=middle;whiteSpace=wrap;rounded=0;container=0;" parent="uxvyhHdNxwt4XzxNapbn-37" vertex="1">
          <mxGeometry x="206" y="313.04" width="60" height="30" as="geometry" />
        </mxCell>
        <mxCell id="uxvyhHdNxwt4XzxNapbn-43" value="Room&lt;div&gt;12x14&lt;/div&gt;" style="rounded=0;whiteSpace=wrap;html=1;container=0;" parent="uxvyhHdNxwt4XzxNapbn-37" vertex="1">
          <mxGeometry x="273" y="58.6" width="120" height="119" as="geometry" />
        </mxCell>
        <mxCell id="uxvyhHdNxwt4XzxNapbn-44" value="5x10" style="rounded=0;whiteSpace=wrap;html=1;container=0;" parent="uxvyhHdNxwt4XzxNapbn-37" vertex="1">
          <mxGeometry x="171" y="209.6" width="90" height="35" as="geometry" />
        </mxCell>
        <mxCell id="uxvyhHdNxwt4XzxNapbn-45" value="" style="shape=process;whiteSpace=wrap;html=1;backgroundOutline=1;rotation=0;container=0;" parent="uxvyhHdNxwt4XzxNapbn-37" vertex="1">
          <mxGeometry x="273" y="169.6" width="50" height="8" as="geometry" />
        </mxCell>
        <mxCell id="uxvyhHdNxwt4XzxNapbn-58" value="" style="rounded=0;whiteSpace=wrap;html=1;fillColor=#f5f5f5;fontColor=#333333;strokeColor=#666666;container=0;" parent="uxvyhHdNxwt4XzxNapbn-37" vertex="1">
          <mxGeometry x="393" y="55.6" width="30" height="242" as="geometry" />
        </mxCell>
        <mxCell id="uxvyhHdNxwt4XzxNapbn-59" value="&lt;div&gt;Kitchen&lt;/div&gt;&lt;div&gt;7x10&lt;/div&gt;" style="rounded=0;whiteSpace=wrap;html=1;container=0;" parent="uxvyhHdNxwt4XzxNapbn-37" vertex="1">
          <mxGeometry x="171" y="247.6" width="92" height="58" as="geometry" />
        </mxCell>
        <mxCell id="uxvyhHdNxwt4XzxNapbn-60" value="Room&lt;div&gt;12x10&lt;/div&gt;" style="rounded=0;whiteSpace=wrap;html=1;container=0;" parent="uxvyhHdNxwt4XzxNapbn-37" vertex="1">
          <mxGeometry x="171" y="58.6" width="102" height="119" as="geometry" />
        </mxCell>
        <mxCell id="uxvyhHdNxwt4XzxNapbn-61" value="N" style="text;html=1;align=center;verticalAlign=middle;whiteSpace=wrap;rounded=0;container=0;" parent="uxvyhHdNxwt4XzxNapbn-37" vertex="1">
          <mxGeometry x="383" y="311.6" width="60" height="30" as="geometry" />
        </mxCell>
        <mxCell id="uxvyhHdNxwt4XzxNapbn-62" value="First Floor" style="text;html=1;align=center;verticalAlign=middle;whiteSpace=wrap;rounded=0;fontStyle=1;container=0;" parent="uxvyhHdNxwt4XzxNapbn-37" vertex="1">
          <mxGeometry x="238" y="-0.4" width="95" height="30" as="geometry" />
        </mxCell>
        <mxCell id="uxvyhHdNxwt4XzxNapbn-63" value="24 ft" style="text;html=1;align=center;verticalAlign=middle;whiteSpace=wrap;rounded=0;container=0;" parent="uxvyhHdNxwt4XzxNapbn-37" vertex="1">
          <mxGeometry x="234" y="29.6" width="60" height="30" as="geometry" />
        </mxCell>
        <mxCell id="uxvyhHdNxwt4XzxNapbn-64" value="" style="endArrow=classic;startArrow=classic;html=1;rounded=0;" parent="uxvyhHdNxwt4XzxNapbn-37" edge="1">
          <mxGeometry width="50" height="50" relative="1" as="geometry">
            <mxPoint x="168" y="52.6" as="sourcePoint" />
            <mxPoint x="393" y="50.6" as="targetPoint" />
          </mxGeometry>
        </mxCell>
        <mxCell id="uxvyhHdNxwt4XzxNapbn-65" value="" style="endArrow=classic;startArrow=classic;html=1;rounded=0;" parent="uxvyhHdNxwt4XzxNapbn-37" edge="1">
          <mxGeometry width="50" height="50" relative="1" as="geometry">
            <mxPoint x="163" y="307.6" as="sourcePoint" />
            <mxPoint x="161" y="55.6" as="targetPoint" />
          </mxGeometry>
        </mxCell>
        <mxCell id="uxvyhHdNxwt4XzxNapbn-66" value="" style="shape=process;whiteSpace=wrap;html=1;backgroundOutline=1;rotation=0;container=0;" parent="uxvyhHdNxwt4XzxNapbn-37" vertex="1">
          <mxGeometry x="223" y="169.6" width="50" height="8" as="geometry" />
        </mxCell>
        <mxCell id="uxvyhHdNxwt4XzxNapbn-67" value="Street" style="text;html=1;align=center;verticalAlign=middle;whiteSpace=wrap;rounded=0;container=0;" parent="uxvyhHdNxwt4XzxNapbn-37" vertex="1">
          <mxGeometry x="323" y="297.6" width="60" height="30" as="geometry" />
        </mxCell>
        <mxCell id="uxvyhHdNxwt4XzxNapbn-68" value="&lt;font style=&quot;font-size: 9px;&quot;&gt;Street&lt;/font&gt;" style="text;html=1;align=center;verticalAlign=middle;whiteSpace=wrap;rounded=0;container=0;" parent="uxvyhHdNxwt4XzxNapbn-37" vertex="1">
          <mxGeometry x="378" y="177.6" width="60" height="30" as="geometry" />
        </mxCell>
        <mxCell id="uxvyhHdNxwt4XzxNapbn-69" value="2x2" style="rounded=0;whiteSpace=wrap;html=1;container=0;" parent="uxvyhHdNxwt4XzxNapbn-37" vertex="1">
          <mxGeometry x="171" y="177.6" width="32" height="30" as="geometry" />
        </mxCell>
        <mxCell id="uxvyhHdNxwt4XzxNapbn-70" value="" style="shape=process;whiteSpace=wrap;html=1;backgroundOutline=1;rotation=90;container=0;" parent="uxvyhHdNxwt4XzxNapbn-37" vertex="1">
          <mxGeometry x="231.25" y="272.85" width="55" height="7.5" as="geometry" />
        </mxCell>
        <mxCell id="uxvyhHdNxwt4XzxNapbn-71" value="" style="shape=process;whiteSpace=wrap;html=1;backgroundOutline=1;rotation=0;container=0;" parent="uxvyhHdNxwt4XzxNapbn-37" vertex="1">
          <mxGeometry x="228.75" y="209.6" width="32" height="6" as="geometry" />
        </mxCell>
        <mxCell id="uxvyhHdNxwt4XzxNapbn-48" value="" style="endArrow=none;html=1;rounded=0;entryX=-0.003;entryY=0.7;entryDx=0;entryDy=0;entryPerimeter=0;" parent="uxvyhHdNxwt4XzxNapbn-37" edge="1">
          <mxGeometry width="50" height="50" relative="1" as="geometry">
            <mxPoint x="306" y="277.59999999999997" as="sourcePoint" />
            <mxPoint x="390" y="277.59999999999997" as="targetPoint" />
          </mxGeometry>
        </mxCell>
        <mxCell id="uxvyhHdNxwt4XzxNapbn-140" value="E" style="text;html=1;align=center;verticalAlign=middle;whiteSpace=wrap;rounded=0;" parent="uxvyhHdNxwt4XzxNapbn-37" vertex="1">
          <mxGeometry x="126" y="303.6" width="30" height="30" as="geometry" />
        </mxCell>
        <mxCell id="uxvyhHdNxwt4XzxNapbn-141" value="E" style="text;html=1;align=center;verticalAlign=middle;whiteSpace=wrap;rounded=0;" parent="uxvyhHdNxwt4XzxNapbn-37" vertex="1">
          <mxGeometry x="-309" y="726.36" width="30" height="30" as="geometry" />
        </mxCell>
        <mxCell id="agojiYEhN3OgMZIlrfLc-1" value="" style="group" vertex="1" connectable="0" parent="uxvyhHdNxwt4XzxNapbn-37">
          <mxGeometry x="306.00000000000006" y="255.50999999999996" width="83.74875373878348" height="50.09000000000006" as="geometry" />
        </mxCell>
        <mxCell id="uxvyhHdNxwt4XzxNapbn-47" value="" style="shape=internalStorage;whiteSpace=wrap;html=1;backgroundOutline=1;dx=23;dy=25;rotation=-180;container=0;" parent="agojiYEhN3OgMZIlrfLc-1" vertex="1">
          <mxGeometry x="-5.684341886080802e-14" y="0.08999999999997499" width="83.74875373878349" height="50.000000000000036" as="geometry" />
        </mxCell>
        <mxCell id="uxvyhHdNxwt4XzxNapbn-49" value="" style="endArrow=none;html=1;rounded=0;" parent="agojiYEhN3OgMZIlrfLc-1" edge="1">
          <mxGeometry width="50" height="50" relative="1" as="geometry">
            <mxPoint x="10.049850448653956" y="49.000000000000085" as="sourcePoint" />
            <mxPoint x="10.049850448653956" y="27.00000000000003" as="targetPoint" />
          </mxGeometry>
        </mxCell>
        <mxCell id="uxvyhHdNxwt4XzxNapbn-50" value="" style="endArrow=none;html=1;rounded=0;" parent="agojiYEhN3OgMZIlrfLc-1" edge="1">
          <mxGeometry width="50" height="50" relative="1" as="geometry">
            <mxPoint x="21.216350947158446" y="49.000000000000085" as="sourcePoint" />
            <mxPoint x="21.216350947158446" y="27.00000000000003" as="targetPoint" />
          </mxGeometry>
        </mxCell>
        <mxCell id="uxvyhHdNxwt4XzxNapbn-51" value="" style="endArrow=none;html=1;rounded=0;" parent="agojiYEhN3OgMZIlrfLc-1" edge="1">
          <mxGeometry width="50" height="50" relative="1" as="geometry">
            <mxPoint x="32.38285144566288" y="49.000000000000085" as="sourcePoint" />
            <mxPoint x="32.38285144566288" y="27.00000000000003" as="targetPoint" />
          </mxGeometry>
        </mxCell>
        <mxCell id="uxvyhHdNxwt4XzxNapbn-52" value="" style="endArrow=none;html=1;rounded=0;" parent="agojiYEhN3OgMZIlrfLc-1" edge="1">
          <mxGeometry width="50" height="50" relative="1" as="geometry">
            <mxPoint x="44.66600199401779" y="49.000000000000085" as="sourcePoint" />
            <mxPoint x="44.66600199401779" y="27.00000000000003" as="targetPoint" />
          </mxGeometry>
        </mxCell>
        <mxCell id="uxvyhHdNxwt4XzxNapbn-53" value="" style="endArrow=none;html=1;rounded=0;" parent="agojiYEhN3OgMZIlrfLc-1" edge="1">
          <mxGeometry width="50" height="50" relative="1" as="geometry">
            <mxPoint x="10.451844466599994" y="22.00000000000003" as="sourcePoint" />
            <mxPoint x="10.451844466599994" as="targetPoint" />
          </mxGeometry>
        </mxCell>
        <mxCell id="uxvyhHdNxwt4XzxNapbn-54" value="" style="endArrow=none;html=1;rounded=0;" parent="agojiYEhN3OgMZIlrfLc-1" edge="1">
          <mxGeometry width="50" height="50" relative="1" as="geometry">
            <mxPoint x="21.618344965104484" y="22.00000000000003" as="sourcePoint" />
            <mxPoint x="21.618344965104484" as="targetPoint" />
          </mxGeometry>
        </mxCell>
        <mxCell id="uxvyhHdNxwt4XzxNapbn-55" value="" style="endArrow=none;html=1;rounded=0;" parent="agojiYEhN3OgMZIlrfLc-1" edge="1">
          <mxGeometry width="50" height="50" relative="1" as="geometry">
            <mxPoint x="32.784845463608974" y="22.00000000000003" as="sourcePoint" />
            <mxPoint x="32.784845463608974" as="targetPoint" />
          </mxGeometry>
        </mxCell>
        <mxCell id="uxvyhHdNxwt4XzxNapbn-56" value="" style="endArrow=none;html=1;rounded=0;" parent="agojiYEhN3OgMZIlrfLc-1" edge="1">
          <mxGeometry width="50" height="50" relative="1" as="geometry">
            <mxPoint x="45.067996011963885" y="22.00000000000003" as="sourcePoint" />
            <mxPoint x="45.067996011963885" as="targetPoint" />
          </mxGeometry>
        </mxCell>
        <mxCell id="uxvyhHdNxwt4XzxNapbn-57" value="" style="shape=trapezoid;perimeter=trapezoidPerimeter;whiteSpace=wrap;html=1;fixedSize=1;rotation=60;fillColor=#f5f5f5;fontColor=#333333;strokeColor=#B3B3B3;size=11.25;container=0;" parent="uxvyhHdNxwt4XzxNapbn-37" vertex="1">
          <mxGeometry x="338" y="259.6" width="51.25" height="99.32" as="geometry" />
        </mxCell>
        <mxCell id="uxvyhHdNxwt4XzxNapbn-74" value="" style="rounded=0;whiteSpace=wrap;html=1;fillColor=#fff2cc;strokeColor=#d6b656;container=0;" parent="1" vertex="1">
          <mxGeometry x="80" y="-553.2399999999999" width="225" height="252" as="geometry" />
        </mxCell>
        <mxCell id="uxvyhHdNxwt4XzxNapbn-75" value="" style="rounded=0;whiteSpace=wrap;html=1;rotation=90;fillColor=#f5f5f5;fontColor=#333333;strokeColor=#666666;container=0;" parent="1" vertex="1">
          <mxGeometry x="142.57999999999993" y="-365.4" width="37.28" height="169.4" as="geometry" />
        </mxCell>
        <mxCell id="uxvyhHdNxwt4XzxNapbn-76" value="W" style="text;html=1;align=center;verticalAlign=middle;whiteSpace=wrap;rounded=0;container=0;" parent="1" vertex="1">
          <mxGeometry x="250" y="-594.2399999999999" width="60" height="30" as="geometry" />
        </mxCell>
        <mxCell id="uxvyhHdNxwt4XzxNapbn-77" value="Street" style="text;html=1;align=center;verticalAlign=middle;whiteSpace=wrap;rounded=0;container=0;" parent="1" vertex="1">
          <mxGeometry x="118" y="-295.80000000000007" width="60" height="30" as="geometry" />
        </mxCell>
        <mxCell id="uxvyhHdNxwt4XzxNapbn-78" value="Room&lt;div&gt;12x14&lt;/div&gt;" style="rounded=0;whiteSpace=wrap;html=1;container=0;" parent="1" vertex="1">
          <mxGeometry x="185" y="-550.2399999999999" width="120" height="119" as="geometry" />
        </mxCell>
        <mxCell id="uxvyhHdNxwt4XzxNapbn-79" value="5x10" style="rounded=0;whiteSpace=wrap;html=1;container=0;" parent="1" vertex="1">
          <mxGeometry x="83" y="-399.24" width="90" height="35" as="geometry" />
        </mxCell>
        <mxCell id="uxvyhHdNxwt4XzxNapbn-80" value="" style="shape=process;whiteSpace=wrap;html=1;backgroundOutline=1;rotation=0;container=0;" parent="1" vertex="1">
          <mxGeometry x="185" y="-439.24" width="50" height="8" as="geometry" />
        </mxCell>
        <mxCell id="uxvyhHdNxwt4XzxNapbn-82" value="" style="rounded=0;whiteSpace=wrap;html=1;fillColor=#f5f5f5;fontColor=#333333;strokeColor=#666666;container=0;" parent="1" vertex="1">
          <mxGeometry x="305" y="-553.2399999999999" width="30" height="242" as="geometry" />
        </mxCell>
        <mxCell id="uxvyhHdNxwt4XzxNapbn-83" value="&lt;div&gt;Kitchen&lt;/div&gt;&lt;div&gt;7x10&lt;/div&gt;" style="rounded=0;whiteSpace=wrap;html=1;container=0;" parent="1" vertex="1">
          <mxGeometry x="83" y="-361.24" width="92" height="58" as="geometry" />
        </mxCell>
        <mxCell id="uxvyhHdNxwt4XzxNapbn-84" value="Room&lt;div&gt;12x10&lt;/div&gt;" style="rounded=0;whiteSpace=wrap;html=1;container=0;" parent="1" vertex="1">
          <mxGeometry x="83" y="-550.2399999999999" width="102" height="119" as="geometry" />
        </mxCell>
        <mxCell id="uxvyhHdNxwt4XzxNapbn-85" value="N" style="text;html=1;align=center;verticalAlign=middle;whiteSpace=wrap;rounded=0;container=0;" parent="1" vertex="1">
          <mxGeometry x="295" y="-297.24" width="60" height="30" as="geometry" />
        </mxCell>
        <mxCell id="uxvyhHdNxwt4XzxNapbn-86" value="Second Floor" style="text;html=1;align=center;verticalAlign=middle;whiteSpace=wrap;rounded=0;fontStyle=1;container=0;" parent="1" vertex="1">
          <mxGeometry x="150" y="-609.2399999999999" width="95" height="30" as="geometry" />
        </mxCell>
        <mxCell id="uxvyhHdNxwt4XzxNapbn-87" value="24 ft" style="text;html=1;align=center;verticalAlign=middle;whiteSpace=wrap;rounded=0;container=0;" parent="1" vertex="1">
          <mxGeometry x="146" y="-579.2399999999999" width="60" height="30" as="geometry" />
        </mxCell>
        <mxCell id="uxvyhHdNxwt4XzxNapbn-88" value="" style="endArrow=classic;startArrow=classic;html=1;rounded=0;" parent="1" edge="1">
          <mxGeometry width="50" height="50" relative="1" as="geometry">
            <mxPoint x="80" y="-556.2399999999999" as="sourcePoint" />
            <mxPoint x="305" y="-558.2399999999999" as="targetPoint" />
          </mxGeometry>
        </mxCell>
        <mxCell id="uxvyhHdNxwt4XzxNapbn-89" value="" style="endArrow=classic;startArrow=classic;html=1;rounded=0;" parent="1" edge="1">
          <mxGeometry width="50" height="50" relative="1" as="geometry">
            <mxPoint x="75" y="-301.24" as="sourcePoint" />
            <mxPoint x="73" y="-553.2399999999999" as="targetPoint" />
          </mxGeometry>
        </mxCell>
        <mxCell id="uxvyhHdNxwt4XzxNapbn-90" value="" style="shape=process;whiteSpace=wrap;html=1;backgroundOutline=1;rotation=0;container=0;" parent="1" vertex="1">
          <mxGeometry x="135" y="-439.24" width="50" height="8" as="geometry" />
        </mxCell>
        <mxCell id="uxvyhHdNxwt4XzxNapbn-91" value="Street" style="text;html=1;align=center;verticalAlign=middle;whiteSpace=wrap;rounded=0;container=0;" parent="1" vertex="1">
          <mxGeometry x="235" y="-311.24" width="60" height="30" as="geometry" />
        </mxCell>
        <mxCell id="uxvyhHdNxwt4XzxNapbn-92" value="&lt;font style=&quot;font-size: 9px;&quot;&gt;Street&lt;/font&gt;" style="text;html=1;align=center;verticalAlign=middle;whiteSpace=wrap;rounded=0;container=0;" parent="1" vertex="1">
          <mxGeometry x="290" y="-431.24" width="60" height="30" as="geometry" />
        </mxCell>
        <mxCell id="uxvyhHdNxwt4XzxNapbn-93" value="2x2" style="rounded=0;whiteSpace=wrap;html=1;container=0;" parent="1" vertex="1">
          <mxGeometry x="83" y="-431.24" width="32" height="30" as="geometry" />
        </mxCell>
        <mxCell id="uxvyhHdNxwt4XzxNapbn-94" value="" style="shape=process;whiteSpace=wrap;html=1;backgroundOutline=1;rotation=90;container=0;" parent="1" vertex="1">
          <mxGeometry x="143.25" y="-335.99" width="55" height="7.5" as="geometry" />
        </mxCell>
        <mxCell id="uxvyhHdNxwt4XzxNapbn-95" value="" style="shape=process;whiteSpace=wrap;html=1;backgroundOutline=1;rotation=0;container=0;" parent="1" vertex="1">
          <mxGeometry x="140.75" y="-399.24" width="32" height="6" as="geometry" />
        </mxCell>
        <mxCell id="uxvyhHdNxwt4XzxNapbn-96" value="" style="shape=internalStorage;whiteSpace=wrap;html=1;backgroundOutline=1;dx=23;dy=25;rotation=-180;container=0;" parent="1" vertex="1">
          <mxGeometry x="218" y="-353.2400000000001" width="83.74875373878349" height="50.000000000000036" as="geometry" />
        </mxCell>
        <mxCell id="uxvyhHdNxwt4XzxNapbn-97" value="" style="endArrow=none;html=1;rounded=0;entryX=-0.003;entryY=0.7;entryDx=0;entryDy=0;entryPerimeter=0;" parent="1" edge="1">
          <mxGeometry width="50" height="50" relative="1" as="geometry">
            <mxPoint x="218" y="-331.2400000000001" as="sourcePoint" />
            <mxPoint x="302" y="-331.2400000000001" as="targetPoint" />
          </mxGeometry>
        </mxCell>
        <mxCell id="uxvyhHdNxwt4XzxNapbn-98" value="" style="endArrow=none;html=1;rounded=0;" parent="1" edge="1">
          <mxGeometry width="50" height="50" relative="1" as="geometry">
            <mxPoint x="228.04985044865407" y="-304.33000000000004" as="sourcePoint" />
            <mxPoint x="228.04985044865407" y="-326.33000000000004" as="targetPoint" />
          </mxGeometry>
        </mxCell>
        <mxCell id="uxvyhHdNxwt4XzxNapbn-99" value="" style="endArrow=none;html=1;rounded=0;" parent="1" edge="1">
          <mxGeometry width="50" height="50" relative="1" as="geometry">
            <mxPoint x="239.2163509471584" y="-304.33000000000004" as="sourcePoint" />
            <mxPoint x="239.2163509471584" y="-326.33000000000004" as="targetPoint" />
          </mxGeometry>
        </mxCell>
        <mxCell id="uxvyhHdNxwt4XzxNapbn-100" value="" style="endArrow=none;html=1;rounded=0;" parent="1" edge="1">
          <mxGeometry width="50" height="50" relative="1" as="geometry">
            <mxPoint x="250.38285144566294" y="-304.33000000000004" as="sourcePoint" />
            <mxPoint x="250.38285144566294" y="-326.33000000000004" as="targetPoint" />
          </mxGeometry>
        </mxCell>
        <mxCell id="uxvyhHdNxwt4XzxNapbn-101" value="" style="endArrow=none;html=1;rounded=0;" parent="1" edge="1">
          <mxGeometry width="50" height="50" relative="1" as="geometry">
            <mxPoint x="262.66600199401773" y="-304.33000000000004" as="sourcePoint" />
            <mxPoint x="262.66600199401773" y="-326.33000000000004" as="targetPoint" />
          </mxGeometry>
        </mxCell>
        <mxCell id="uxvyhHdNxwt4XzxNapbn-102" value="" style="endArrow=none;html=1;rounded=0;" parent="1" edge="1">
          <mxGeometry width="50" height="50" relative="1" as="geometry">
            <mxPoint x="228.45184446660005" y="-331.33000000000004" as="sourcePoint" />
            <mxPoint x="228.45184446660005" y="-353.33000000000004" as="targetPoint" />
          </mxGeometry>
        </mxCell>
        <mxCell id="uxvyhHdNxwt4XzxNapbn-103" value="" style="endArrow=none;html=1;rounded=0;" parent="1" edge="1">
          <mxGeometry width="50" height="50" relative="1" as="geometry">
            <mxPoint x="239.6183449651046" y="-331.33000000000004" as="sourcePoint" />
            <mxPoint x="239.6183449651046" y="-353.33000000000004" as="targetPoint" />
          </mxGeometry>
        </mxCell>
        <mxCell id="uxvyhHdNxwt4XzxNapbn-104" value="" style="endArrow=none;html=1;rounded=0;" parent="1" edge="1">
          <mxGeometry width="50" height="50" relative="1" as="geometry">
            <mxPoint x="250.78484546360914" y="-331.33000000000004" as="sourcePoint" />
            <mxPoint x="250.78484546360914" y="-353.33000000000004" as="targetPoint" />
          </mxGeometry>
        </mxCell>
        <mxCell id="uxvyhHdNxwt4XzxNapbn-105" value="" style="endArrow=none;html=1;rounded=0;" parent="1" edge="1">
          <mxGeometry width="50" height="50" relative="1" as="geometry">
            <mxPoint x="263.06799601196394" y="-331.33000000000004" as="sourcePoint" />
            <mxPoint x="263.06799601196394" y="-353.33000000000004" as="targetPoint" />
          </mxGeometry>
        </mxCell>
        <mxCell id="uxvyhHdNxwt4XzxNapbn-107" value="26 ft" style="text;html=1;align=center;verticalAlign=middle;whiteSpace=wrap;rounded=0;" parent="1" vertex="1">
          <mxGeometry x="465" y="-462.24" width="60" height="30" as="geometry" />
        </mxCell>
        <mxCell id="uxvyhHdNxwt4XzxNapbn-108" value="" style="rounded=0;whiteSpace=wrap;html=1;fillColor=#fff2cc;strokeColor=#d6b656;container=0;" parent="1" vertex="1">
          <mxGeometry x="515" y="-553.24" width="225" height="252" as="geometry" />
        </mxCell>
        <mxCell id="uxvyhHdNxwt4XzxNapbn-109" value="" style="rounded=0;whiteSpace=wrap;html=1;rotation=90;fillColor=#f5f5f5;fontColor=#333333;strokeColor=#666666;container=0;" parent="1" vertex="1">
          <mxGeometry x="577.5799999999999" y="-365.4" width="37.28" height="169.4" as="geometry" />
        </mxCell>
        <mxCell id="uxvyhHdNxwt4XzxNapbn-110" value="W" style="text;html=1;align=center;verticalAlign=middle;whiteSpace=wrap;rounded=0;container=0;" parent="1" vertex="1">
          <mxGeometry x="685" y="-594.24" width="60" height="30" as="geometry" />
        </mxCell>
        <mxCell id="uxvyhHdNxwt4XzxNapbn-111" value="Street" style="text;html=1;align=center;verticalAlign=middle;whiteSpace=wrap;rounded=0;container=0;" parent="1" vertex="1">
          <mxGeometry x="553" y="-295.79999999999995" width="60" height="30" as="geometry" />
        </mxCell>
        <mxCell id="uxvyhHdNxwt4XzxNapbn-112" value="Room&lt;div&gt;12x14&lt;/div&gt;" style="rounded=0;whiteSpace=wrap;html=1;container=0;" parent="1" vertex="1">
          <mxGeometry x="620" y="-550.24" width="120" height="119" as="geometry" />
        </mxCell>
        <mxCell id="uxvyhHdNxwt4XzxNapbn-113" value="5x10" style="rounded=0;whiteSpace=wrap;html=1;container=0;" parent="1" vertex="1">
          <mxGeometry x="518" y="-399.24" width="90" height="35" as="geometry" />
        </mxCell>
        <mxCell id="uxvyhHdNxwt4XzxNapbn-114" value="" style="shape=process;whiteSpace=wrap;html=1;backgroundOutline=1;rotation=0;container=0;" parent="1" vertex="1">
          <mxGeometry x="620" y="-439.24" width="50" height="8" as="geometry" />
        </mxCell>
        <mxCell id="uxvyhHdNxwt4XzxNapbn-116" value="" style="rounded=0;whiteSpace=wrap;html=1;fillColor=#f5f5f5;fontColor=#333333;strokeColor=#666666;container=0;" parent="1" vertex="1">
          <mxGeometry x="740" y="-553.24" width="30" height="242" as="geometry" />
        </mxCell>
        <mxCell id="uxvyhHdNxwt4XzxNapbn-117" value="&lt;div&gt;Kitchen&lt;/div&gt;&lt;div&gt;7x10&lt;/div&gt;" style="rounded=0;whiteSpace=wrap;html=1;container=0;" parent="1" vertex="1">
          <mxGeometry x="518" y="-361.24" width="92" height="58" as="geometry" />
        </mxCell>
        <mxCell id="uxvyhHdNxwt4XzxNapbn-118" value="Room&lt;div&gt;12x10&lt;/div&gt;" style="rounded=0;whiteSpace=wrap;html=1;container=0;" parent="1" vertex="1">
          <mxGeometry x="518" y="-550.24" width="102" height="119" as="geometry" />
        </mxCell>
        <mxCell id="uxvyhHdNxwt4XzxNapbn-119" value="N" style="text;html=1;align=center;verticalAlign=middle;whiteSpace=wrap;rounded=0;container=0;" parent="1" vertex="1">
          <mxGeometry x="730" y="-297.24" width="60" height="30" as="geometry" />
        </mxCell>
        <mxCell id="uxvyhHdNxwt4XzxNapbn-120" value="Third Floor" style="text;html=1;align=center;verticalAlign=middle;whiteSpace=wrap;rounded=0;fontStyle=1;container=0;" parent="1" vertex="1">
          <mxGeometry x="585" y="-609.24" width="95" height="30" as="geometry" />
        </mxCell>
        <mxCell id="uxvyhHdNxwt4XzxNapbn-121" value="24 ft" style="text;html=1;align=center;verticalAlign=middle;whiteSpace=wrap;rounded=0;container=0;" parent="1" vertex="1">
          <mxGeometry x="581" y="-579.24" width="60" height="30" as="geometry" />
        </mxCell>
        <mxCell id="uxvyhHdNxwt4XzxNapbn-122" value="" style="endArrow=classic;startArrow=classic;html=1;rounded=0;" parent="1" edge="1">
          <mxGeometry width="50" height="50" relative="1" as="geometry">
            <mxPoint x="515" y="-556.24" as="sourcePoint" />
            <mxPoint x="740" y="-558.24" as="targetPoint" />
          </mxGeometry>
        </mxCell>
        <mxCell id="uxvyhHdNxwt4XzxNapbn-123" value="" style="endArrow=classic;startArrow=classic;html=1;rounded=0;" parent="1" edge="1">
          <mxGeometry width="50" height="50" relative="1" as="geometry">
            <mxPoint x="510" y="-301.24" as="sourcePoint" />
            <mxPoint x="508" y="-553.24" as="targetPoint" />
          </mxGeometry>
        </mxCell>
        <mxCell id="uxvyhHdNxwt4XzxNapbn-124" value="" style="shape=process;whiteSpace=wrap;html=1;backgroundOutline=1;rotation=0;container=0;" parent="1" vertex="1">
          <mxGeometry x="570" y="-439.24" width="50" height="8" as="geometry" />
        </mxCell>
        <mxCell id="uxvyhHdNxwt4XzxNapbn-125" value="Street" style="text;html=1;align=center;verticalAlign=middle;whiteSpace=wrap;rounded=0;container=0;" parent="1" vertex="1">
          <mxGeometry x="670" y="-311.24" width="60" height="30" as="geometry" />
        </mxCell>
        <mxCell id="uxvyhHdNxwt4XzxNapbn-126" value="&lt;font style=&quot;font-size: 9px;&quot;&gt;Street&lt;/font&gt;" style="text;html=1;align=center;verticalAlign=middle;whiteSpace=wrap;rounded=0;container=0;" parent="1" vertex="1">
          <mxGeometry x="725" y="-431.24" width="60" height="30" as="geometry" />
        </mxCell>
        <mxCell id="uxvyhHdNxwt4XzxNapbn-127" value="2x2" style="rounded=0;whiteSpace=wrap;html=1;container=0;" parent="1" vertex="1">
          <mxGeometry x="518" y="-431.24" width="32" height="30" as="geometry" />
        </mxCell>
        <mxCell id="uxvyhHdNxwt4XzxNapbn-128" value="" style="shape=process;whiteSpace=wrap;html=1;backgroundOutline=1;rotation=90;container=0;" parent="1" vertex="1">
          <mxGeometry x="578.25" y="-335.99" width="55" height="7.5" as="geometry" />
        </mxCell>
        <mxCell id="uxvyhHdNxwt4XzxNapbn-129" value="" style="shape=process;whiteSpace=wrap;html=1;backgroundOutline=1;rotation=0;container=0;" parent="1" vertex="1">
          <mxGeometry x="575.75" y="-399.24" width="32" height="6" as="geometry" />
        </mxCell>
        <mxCell id="uxvyhHdNxwt4XzxNapbn-130" value="" style="shape=internalStorage;whiteSpace=wrap;html=1;backgroundOutline=1;dx=23;dy=25;rotation=-180;container=0;" parent="1" vertex="1">
          <mxGeometry x="653" y="-353.24" width="83.74875373878349" height="50.000000000000036" as="geometry" />
        </mxCell>
        <mxCell id="uxvyhHdNxwt4XzxNapbn-131" value="" style="endArrow=none;html=1;rounded=0;entryX=-0.003;entryY=0.7;entryDx=0;entryDy=0;entryPerimeter=0;" parent="1" edge="1">
          <mxGeometry width="50" height="50" relative="1" as="geometry">
            <mxPoint x="653" y="-331.24" as="sourcePoint" />
            <mxPoint x="737" y="-331.24" as="targetPoint" />
          </mxGeometry>
        </mxCell>
        <mxCell id="uxvyhHdNxwt4XzxNapbn-132" value="" style="endArrow=none;html=1;rounded=0;" parent="1" edge="1">
          <mxGeometry width="50" height="50" relative="1" as="geometry">
            <mxPoint x="663.0498504486541" y="-304.3299999999999" as="sourcePoint" />
            <mxPoint x="663.0498504486541" y="-326.33000000000004" as="targetPoint" />
          </mxGeometry>
        </mxCell>
        <mxCell id="uxvyhHdNxwt4XzxNapbn-133" value="" style="endArrow=none;html=1;rounded=0;" parent="1" edge="1">
          <mxGeometry width="50" height="50" relative="1" as="geometry">
            <mxPoint x="674.2163509471584" y="-304.3299999999999" as="sourcePoint" />
            <mxPoint x="674.2163509471584" y="-326.33000000000004" as="targetPoint" />
          </mxGeometry>
        </mxCell>
        <mxCell id="uxvyhHdNxwt4XzxNapbn-134" value="" style="endArrow=none;html=1;rounded=0;" parent="1" edge="1">
          <mxGeometry width="50" height="50" relative="1" as="geometry">
            <mxPoint x="685.3828514456629" y="-304.3299999999999" as="sourcePoint" />
            <mxPoint x="685.3828514456629" y="-326.33000000000004" as="targetPoint" />
          </mxGeometry>
        </mxCell>
        <mxCell id="uxvyhHdNxwt4XzxNapbn-135" value="" style="endArrow=none;html=1;rounded=0;" parent="1" edge="1">
          <mxGeometry width="50" height="50" relative="1" as="geometry">
            <mxPoint x="697.6660019940177" y="-304.3299999999999" as="sourcePoint" />
            <mxPoint x="697.6660019940177" y="-326.33000000000004" as="targetPoint" />
          </mxGeometry>
        </mxCell>
        <mxCell id="uxvyhHdNxwt4XzxNapbn-136" value="" style="endArrow=none;html=1;rounded=0;" parent="1" edge="1">
          <mxGeometry width="50" height="50" relative="1" as="geometry">
            <mxPoint x="663.4518444666" y="-331.33000000000004" as="sourcePoint" />
            <mxPoint x="663.4518444666" y="-353.33000000000004" as="targetPoint" />
          </mxGeometry>
        </mxCell>
        <mxCell id="uxvyhHdNxwt4XzxNapbn-137" value="" style="endArrow=none;html=1;rounded=0;" parent="1" edge="1">
          <mxGeometry width="50" height="50" relative="1" as="geometry">
            <mxPoint x="674.6183449651046" y="-331.33000000000004" as="sourcePoint" />
            <mxPoint x="674.6183449651046" y="-353.33000000000004" as="targetPoint" />
          </mxGeometry>
        </mxCell>
        <mxCell id="uxvyhHdNxwt4XzxNapbn-138" value="" style="endArrow=none;html=1;rounded=0;" parent="1" edge="1">
          <mxGeometry width="50" height="50" relative="1" as="geometry">
            <mxPoint x="685.7848454636091" y="-331.33000000000004" as="sourcePoint" />
            <mxPoint x="685.7848454636091" y="-353.33000000000004" as="targetPoint" />
          </mxGeometry>
        </mxCell>
        <mxCell id="uxvyhHdNxwt4XzxNapbn-139" value="" style="endArrow=none;html=1;rounded=0;" parent="1" edge="1">
          <mxGeometry width="50" height="50" relative="1" as="geometry">
            <mxPoint x="698.0679960119639" y="-331.33000000000004" as="sourcePoint" />
            <mxPoint x="698.0679960119639" y="-353.33000000000004" as="targetPoint" />
          </mxGeometry>
        </mxCell>
        <mxCell id="uxvyhHdNxwt4XzxNapbn-142" value="E" style="text;html=1;align=center;verticalAlign=middle;whiteSpace=wrap;rounded=0;" parent="1" vertex="1">
          <mxGeometry x="475" y="-295.12" width="30" height="30" as="geometry" />
        </mxCell>
        <mxCell id="uxvyhHdNxwt4XzxNapbn-81" value="" style="shape=trapezoid;perimeter=trapezoidPerimeter;whiteSpace=wrap;html=1;fixedSize=1;rotation=60;fillColor=#f5f5f5;fontColor=#333333;strokeColor=#B3B3B3;size=11.25;container=0;" parent="1" vertex="1">
          <mxGeometry x="250" y="-349.24" width="51.25" height="99.32" as="geometry" />
        </mxCell>
        <mxCell id="uxvyhHdNxwt4XzxNapbn-115" value="" style="shape=trapezoid;perimeter=trapezoidPerimeter;whiteSpace=wrap;html=1;fixedSize=1;rotation=60;fillColor=#f5f5f5;fontColor=#333333;strokeColor=#B3B3B3;size=11.25;container=0;" parent="1" vertex="1">
          <mxGeometry x="685" y="-349.24" width="51.25" height="99.32" as="geometry" />
        </mxCell>
        <mxCell id="uxvyhHdNxwt4XzxNapbn-106" value="26 ft" style="text;html=1;align=center;verticalAlign=middle;whiteSpace=wrap;rounded=0;" parent="1" vertex="1">
          <mxGeometry x="25" y="-453.9999999999999" width="60" height="30" as="geometry" />
        </mxCell>
        <mxCell id="lcyZzQgy9kSsoNMxLj4j-94" value="" style="group" parent="1" vertex="1" connectable="0">
          <mxGeometry x="70" y="-197" width="725" height="356.68190097197623" as="geometry" />
        </mxCell>
        <mxCell id="lcyZzQgy9kSsoNMxLj4j-1" value="" style="group" parent="lcyZzQgy9kSsoNMxLj4j-94" vertex="1" connectable="0">
          <mxGeometry y="3" width="309" height="340.80190097197624" as="geometry" />
        </mxCell>
        <mxCell id="lcyZzQgy9kSsoNMxLj4j-2" value="" style="rounded=0;whiteSpace=wrap;html=1;fillColor=#fff2cc;strokeColor=#d6b656;" parent="lcyZzQgy9kSsoNMxLj4j-1" vertex="1">
          <mxGeometry x="55" y="56" width="200" height="230" as="geometry" />
        </mxCell>
        <mxCell id="lcyZzQgy9kSsoNMxLj4j-3" value="" style="rounded=0;whiteSpace=wrap;html=1;rotation=90;fillColor=#f5f5f5;fontColor=#333333;strokeColor=#666666;" parent="lcyZzQgy9kSsoNMxLj4j-1" vertex="1">
          <mxGeometry x="100.29999999999995" y="243.71000000000004" width="51.8" height="142.38" as="geometry" />
        </mxCell>
        <mxCell id="lcyZzQgy9kSsoNMxLj4j-5" value="E" style="text;html=1;align=center;verticalAlign=middle;whiteSpace=wrap;rounded=0;" parent="lcyZzQgy9kSsoNMxLj4j-1" vertex="1">
          <mxGeometry x="9" y="294" width="30" height="30" as="geometry" />
        </mxCell>
        <mxCell id="lcyZzQgy9kSsoNMxLj4j-6" value="Street" style="text;html=1;align=center;verticalAlign=middle;whiteSpace=wrap;rounded=0;" parent="lcyZzQgy9kSsoNMxLj4j-1" vertex="1">
          <mxGeometry x="79" y="295" width="60" height="30" as="geometry" />
        </mxCell>
        <mxCell id="lcyZzQgy9kSsoNMxLj4j-7" value="Street" style="text;html=1;align=center;verticalAlign=middle;whiteSpace=wrap;rounded=0;" parent="lcyZzQgy9kSsoNMxLj4j-1" vertex="1">
          <mxGeometry x="249" y="176" width="60" height="30" as="geometry" />
        </mxCell>
        <mxCell id="lcyZzQgy9kSsoNMxLj4j-23" value="Street" style="rounded=0;whiteSpace=wrap;html=1;fillColor=#f5f5f5;fontColor=#333333;strokeColor=#666666;" parent="lcyZzQgy9kSsoNMxLj4j-1" vertex="1">
          <mxGeometry x="259" y="56" width="40" height="230" as="geometry" />
        </mxCell>
        <mxCell id="lcyZzQgy9kSsoNMxLj4j-28" value="N" style="text;html=1;align=center;verticalAlign=middle;whiteSpace=wrap;rounded=0;" parent="lcyZzQgy9kSsoNMxLj4j-1" vertex="1">
          <mxGeometry x="245" y="280" width="60" height="30" as="geometry" />
        </mxCell>
        <mxCell id="lcyZzQgy9kSsoNMxLj4j-29" value="S" style="text;html=1;align=center;verticalAlign=middle;whiteSpace=wrap;rounded=0;" parent="lcyZzQgy9kSsoNMxLj4j-1" vertex="1">
          <mxGeometry x="19" y="26" width="60" height="30" as="geometry" />
        </mxCell>
        <mxCell id="lcyZzQgy9kSsoNMxLj4j-30" value="Basement" style="text;html=1;align=center;verticalAlign=middle;whiteSpace=wrap;rounded=0;fontStyle=1" parent="lcyZzQgy9kSsoNMxLj4j-1" vertex="1">
          <mxGeometry x="125" width="95" height="30" as="geometry" />
        </mxCell>
        <mxCell id="lcyZzQgy9kSsoNMxLj4j-31" value="20 ft" style="text;html=1;align=center;verticalAlign=middle;whiteSpace=wrap;rounded=0;" parent="lcyZzQgy9kSsoNMxLj4j-1" vertex="1">
          <mxGeometry x="125" y="28" width="60" height="30" as="geometry" />
        </mxCell>
        <mxCell id="lcyZzQgy9kSsoNMxLj4j-32" value="22.5 ft" style="text;html=1;align=center;verticalAlign=middle;whiteSpace=wrap;rounded=0;" parent="lcyZzQgy9kSsoNMxLj4j-1" vertex="1">
          <mxGeometry x="2" y="154" width="60" height="30" as="geometry" />
        </mxCell>
        <mxCell id="lcyZzQgy9kSsoNMxLj4j-33" value="" style="endArrow=classic;startArrow=classic;html=1;rounded=0;" parent="lcyZzQgy9kSsoNMxLj4j-1" edge="1">
          <mxGeometry width="50" height="50" relative="1" as="geometry">
            <mxPoint x="59" y="51" as="sourcePoint" />
            <mxPoint x="251" y="49" as="targetPoint" />
          </mxGeometry>
        </mxCell>
        <mxCell id="lcyZzQgy9kSsoNMxLj4j-34" value="" style="endArrow=classic;startArrow=classic;html=1;rounded=0;" parent="lcyZzQgy9kSsoNMxLj4j-1" edge="1">
          <mxGeometry width="50" height="50" relative="1" as="geometry">
            <mxPoint x="40" y="283" as="sourcePoint" />
            <mxPoint x="40" y="56" as="targetPoint" />
          </mxGeometry>
        </mxCell>
        <mxCell id="lcyZzQgy9kSsoNMxLj4j-37" value="&lt;div&gt;Tank&lt;/div&gt;" style="rounded=0;whiteSpace=wrap;html=1;" parent="lcyZzQgy9kSsoNMxLj4j-1" vertex="1">
          <mxGeometry x="150" y="191" width="102" height="89" as="geometry" />
        </mxCell>
        <mxCell id="lcyZzQgy9kSsoNMxLj4j-36" value="" style="shape=trapezoid;perimeter=trapezoidPerimeter;whiteSpace=wrap;html=1;fixedSize=1;rotation=60;fillColor=#f5f5f5;fontColor=#333333;strokeColor=#B3B3B3;size=11.25;" parent="lcyZzQgy9kSsoNMxLj4j-1" vertex="1">
          <mxGeometry x="201.56999999999994" y="244.12" width="51.25" height="99.32" as="geometry" />
        </mxCell>
        <mxCell id="lcyZzQgy9kSsoNMxLj4j-38" value="Water&lt;div&gt;Tank&lt;/div&gt;" style="shape=cylinder3;whiteSpace=wrap;html=1;boundedLbl=1;backgroundOutline=1;size=15;" parent="lcyZzQgy9kSsoNMxLj4j-1" vertex="1">
          <mxGeometry x="155.1" y="64" width="90" height="80" as="geometry" />
        </mxCell>
        <mxCell id="lcyZzQgy9kSsoNMxLj4j-39" value="Water&lt;div&gt;Tank&lt;/div&gt;" style="shape=cylinder3;whiteSpace=wrap;html=1;boundedLbl=1;backgroundOutline=1;size=15;" parent="lcyZzQgy9kSsoNMxLj4j-1" vertex="1">
          <mxGeometry x="60" y="64" width="90" height="80" as="geometry" />
        </mxCell>
        <mxCell id="lcyZzQgy9kSsoNMxLj4j-40" value="26 ft" style="text;html=1;align=center;verticalAlign=middle;whiteSpace=wrap;rounded=0;" parent="lcyZzQgy9kSsoNMxLj4j-94" vertex="1">
          <mxGeometry x="400" y="147" width="60" height="30" as="geometry" />
        </mxCell>
        <mxCell id="lcyZzQgy9kSsoNMxLj4j-41" value="" style="rounded=0;whiteSpace=wrap;html=1;fillColor=#fff2cc;strokeColor=#d6b656;container=0;" parent="lcyZzQgy9kSsoNMxLj4j-94" vertex="1">
          <mxGeometry x="450" y="56" width="225" height="252" as="geometry" />
        </mxCell>
        <mxCell id="lcyZzQgy9kSsoNMxLj4j-42" value="" style="rounded=0;whiteSpace=wrap;html=1;rotation=90;fillColor=#f5f5f5;fontColor=#333333;strokeColor=#666666;container=0;" parent="lcyZzQgy9kSsoNMxLj4j-94" vertex="1">
          <mxGeometry x="512.5799999999999" y="243.84000000000003" width="37.28" height="169.4" as="geometry" />
        </mxCell>
        <mxCell id="lcyZzQgy9kSsoNMxLj4j-43" value="W" style="text;html=1;align=center;verticalAlign=middle;whiteSpace=wrap;rounded=0;container=0;" parent="lcyZzQgy9kSsoNMxLj4j-94" vertex="1">
          <mxGeometry x="620" y="15" width="60" height="30" as="geometry" />
        </mxCell>
        <mxCell id="lcyZzQgy9kSsoNMxLj4j-44" value="Street" style="text;html=1;align=center;verticalAlign=middle;whiteSpace=wrap;rounded=0;container=0;" parent="lcyZzQgy9kSsoNMxLj4j-94" vertex="1">
          <mxGeometry x="488" y="313.44000000000005" width="60" height="30" as="geometry" />
        </mxCell>
        <mxCell id="lcyZzQgy9kSsoNMxLj4j-48" value="" style="rounded=0;whiteSpace=wrap;html=1;fillColor=#f5f5f5;fontColor=#333333;strokeColor=#666666;container=0;" parent="lcyZzQgy9kSsoNMxLj4j-94" vertex="1">
          <mxGeometry x="675" y="56" width="30" height="242" as="geometry" />
        </mxCell>
        <mxCell id="lcyZzQgy9kSsoNMxLj4j-51" value="N" style="text;html=1;align=center;verticalAlign=middle;whiteSpace=wrap;rounded=0;container=0;" parent="lcyZzQgy9kSsoNMxLj4j-94" vertex="1">
          <mxGeometry x="665" y="312" width="60" height="30" as="geometry" />
        </mxCell>
        <mxCell id="lcyZzQgy9kSsoNMxLj4j-52" value="Top Roof" style="text;html=1;align=center;verticalAlign=middle;whiteSpace=wrap;rounded=0;fontStyle=1;container=0;" parent="lcyZzQgy9kSsoNMxLj4j-94" vertex="1">
          <mxGeometry x="520" width="95" height="30" as="geometry" />
        </mxCell>
        <mxCell id="lcyZzQgy9kSsoNMxLj4j-53" value="24 ft" style="text;html=1;align=center;verticalAlign=middle;whiteSpace=wrap;rounded=0;container=0;" parent="lcyZzQgy9kSsoNMxLj4j-94" vertex="1">
          <mxGeometry x="516" y="30" width="60" height="30" as="geometry" />
        </mxCell>
        <mxCell id="lcyZzQgy9kSsoNMxLj4j-54" value="" style="endArrow=classic;startArrow=classic;html=1;rounded=0;" parent="lcyZzQgy9kSsoNMxLj4j-94" edge="1">
          <mxGeometry width="50" height="50" relative="1" as="geometry">
            <mxPoint x="450" y="53" as="sourcePoint" />
            <mxPoint x="675" y="51" as="targetPoint" />
          </mxGeometry>
        </mxCell>
        <mxCell id="lcyZzQgy9kSsoNMxLj4j-55" value="" style="endArrow=classic;startArrow=classic;html=1;rounded=0;" parent="lcyZzQgy9kSsoNMxLj4j-94" edge="1">
          <mxGeometry width="50" height="50" relative="1" as="geometry">
            <mxPoint x="445" y="308" as="sourcePoint" />
            <mxPoint x="443" y="56" as="targetPoint" />
          </mxGeometry>
        </mxCell>
        <mxCell id="lcyZzQgy9kSsoNMxLj4j-57" value="Street" style="text;html=1;align=center;verticalAlign=middle;whiteSpace=wrap;rounded=0;container=0;" parent="lcyZzQgy9kSsoNMxLj4j-94" vertex="1">
          <mxGeometry x="605" y="298" width="60" height="30" as="geometry" />
        </mxCell>
        <mxCell id="lcyZzQgy9kSsoNMxLj4j-58" value="&lt;font style=&quot;font-size: 9px;&quot;&gt;Street&lt;/font&gt;" style="text;html=1;align=center;verticalAlign=middle;whiteSpace=wrap;rounded=0;container=0;" parent="lcyZzQgy9kSsoNMxLj4j-94" vertex="1">
          <mxGeometry x="660" y="178" width="60" height="30" as="geometry" />
        </mxCell>
        <mxCell id="lcyZzQgy9kSsoNMxLj4j-59" value="2x2" style="rounded=0;whiteSpace=wrap;html=1;container=0;direction=south;" parent="lcyZzQgy9kSsoNMxLj4j-94" vertex="1">
          <mxGeometry x="454" y="177" width="30" height="32" as="geometry" />
        </mxCell>
        <mxCell id="lcyZzQgy9kSsoNMxLj4j-62" value="" style="shape=internalStorage;whiteSpace=wrap;html=1;backgroundOutline=1;dx=50;dy=30;rotation=-180;container=0;" parent="lcyZzQgy9kSsoNMxLj4j-94" vertex="1">
          <mxGeometry x="570.01" y="243" width="101.87" height="65" as="geometry" />
        </mxCell>
        <mxCell id="lcyZzQgy9kSsoNMxLj4j-72" value="E" style="text;html=1;align=center;verticalAlign=middle;whiteSpace=wrap;rounded=0;" parent="lcyZzQgy9kSsoNMxLj4j-94" vertex="1">
          <mxGeometry x="410" y="314.12" width="30" height="30" as="geometry" />
        </mxCell>
        <mxCell id="lcyZzQgy9kSsoNMxLj4j-75" value="" style="shape=cylinder3;whiteSpace=wrap;html=1;boundedLbl=1;backgroundOutline=1;size=15;" parent="lcyZzQgy9kSsoNMxLj4j-94" vertex="1">
          <mxGeometry x="575" y="223" width="40" height="50" as="geometry" />
        </mxCell>
        <mxCell id="lcyZzQgy9kSsoNMxLj4j-76" value="" style="shape=cylinder3;whiteSpace=wrap;html=1;boundedLbl=1;backgroundOutline=1;size=15;" parent="lcyZzQgy9kSsoNMxLj4j-94" vertex="1">
          <mxGeometry x="625" y="223" width="40" height="50" as="geometry" />
        </mxCell>
        <mxCell id="lcyZzQgy9kSsoNMxLj4j-77" value="" style="shape=cylinder3;whiteSpace=wrap;html=1;boundedLbl=1;backgroundOutline=1;size=15;" parent="lcyZzQgy9kSsoNMxLj4j-94" vertex="1">
          <mxGeometry x="625" y="250.5" width="40" height="50" as="geometry" />
        </mxCell>
        <mxCell id="lcyZzQgy9kSsoNMxLj4j-78" value="" style="shape=cylinder3;whiteSpace=wrap;html=1;boundedLbl=1;backgroundOutline=1;size=15;" parent="lcyZzQgy9kSsoNMxLj4j-94" vertex="1">
          <mxGeometry x="576" y="258" width="40" height="50" as="geometry" />
        </mxCell>
        <mxCell id="lcyZzQgy9kSsoNMxLj4j-73" value="" style="shape=trapezoid;perimeter=trapezoidPerimeter;whiteSpace=wrap;html=1;fixedSize=1;rotation=60;fillColor=#f5f5f5;fontColor=#333333;strokeColor=#B3B3B3;size=11.25;container=0;" parent="lcyZzQgy9kSsoNMxLj4j-94" vertex="1">
          <mxGeometry x="620" y="260" width="51.25" height="99.32" as="geometry" />
        </mxCell>
        <mxCell id="lcyZzQgy9kSsoNMxLj4j-81" value="" style="shape=link;html=1;rounded=0;" parent="lcyZzQgy9kSsoNMxLj4j-94" edge="1">
          <mxGeometry width="100" relative="1" as="geometry">
            <mxPoint x="455" y="58" as="sourcePoint" />
            <mxPoint x="670" y="58" as="targetPoint" />
          </mxGeometry>
        </mxCell>
        <mxCell id="lcyZzQgy9kSsoNMxLj4j-82" value="" style="shape=link;html=1;rounded=0;" parent="lcyZzQgy9kSsoNMxLj4j-94" edge="1">
          <mxGeometry width="100" relative="1" as="geometry">
            <mxPoint x="453" y="54" as="sourcePoint" />
            <mxPoint x="453" y="309" as="targetPoint" />
          </mxGeometry>
        </mxCell>
        <mxCell id="lcyZzQgy9kSsoNMxLj4j-84" value="5&#39; Wall" style="text;html=1;align=center;verticalAlign=middle;whiteSpace=wrap;rounded=0;" parent="lcyZzQgy9kSsoNMxLj4j-94" vertex="1">
          <mxGeometry x="523" y="60" width="60" height="30" as="geometry" />
        </mxCell>
        <mxCell id="lcyZzQgy9kSsoNMxLj4j-86" value="5&#39; Wall" style="text;html=1;align=center;verticalAlign=middle;whiteSpace=wrap;rounded=0;" parent="lcyZzQgy9kSsoNMxLj4j-94" vertex="1">
          <mxGeometry x="447.58000000000004" y="117" width="60" height="30" as="geometry" />
        </mxCell>
        <mxCell id="lcyZzQgy9kSsoNMxLj4j-87" value="" style="shape=process;whiteSpace=wrap;html=1;backgroundOutline=1;rotation=-180;" parent="lcyZzQgy9kSsoNMxLj4j-94" vertex="1">
          <mxGeometry x="450.5" y="298" width="55" height="10" as="geometry" />
        </mxCell>
        <mxCell id="lcyZzQgy9kSsoNMxLj4j-90" value="" style="shape=process;whiteSpace=wrap;html=1;backgroundOutline=1;rotation=90;" parent="lcyZzQgy9kSsoNMxLj4j-94" vertex="1">
          <mxGeometry x="645" y="78.5" width="55" height="10" as="geometry" />
        </mxCell>
        <mxCell id="lcyZzQgy9kSsoNMxLj4j-91" value="" style="shape=process;whiteSpace=wrap;html=1;backgroundOutline=1;rotation=90;" parent="lcyZzQgy9kSsoNMxLj4j-94" vertex="1">
          <mxGeometry x="645" y="140" width="55" height="10" as="geometry" />
        </mxCell>
        <mxCell id="lcyZzQgy9kSsoNMxLj4j-92" value="" style="shape=process;whiteSpace=wrap;html=1;backgroundOutline=1;rotation=90;" parent="lcyZzQgy9kSsoNMxLj4j-94" vertex="1">
          <mxGeometry x="645" y="202" width="55" height="10" as="geometry" />
        </mxCell>
        <mxCell id="lcyZzQgy9kSsoNMxLj4j-93" value="" style="shape=process;whiteSpace=wrap;html=1;backgroundOutline=1;rotation=-180;" parent="lcyZzQgy9kSsoNMxLj4j-94" vertex="1">
          <mxGeometry x="511" y="298" width="55" height="10" as="geometry" />
        </mxCell>
        <mxCell id="agojiYEhN3OgMZIlrfLc-2" value="" style="group" vertex="1" connectable="0" parent="1">
          <mxGeometry x="210" y="-789" width="77.75" height="50.09" as="geometry" />
        </mxCell>
        <mxCell id="agojiYEhN3OgMZIlrfLc-3" value="" style="shape=internalStorage;whiteSpace=wrap;html=1;backgroundOutline=1;dx=23;dy=25;rotation=-180;container=0;" vertex="1" parent="agojiYEhN3OgMZIlrfLc-2">
          <mxGeometry x="-5.27718398080609e-14" y="0.08999999999997489" width="77.75000000000001" height="49.99999999999998" as="geometry" />
        </mxCell>
        <mxCell id="agojiYEhN3OgMZIlrfLc-4" value="" style="endArrow=none;html=1;rounded=0;" edge="1" parent="agojiYEhN3OgMZIlrfLc-2">
          <mxGeometry width="50" height="50" relative="1" as="geometry">
            <mxPoint x="9.329999999999943" y="49.00000000000003" as="sourcePoint" />
            <mxPoint x="9.329999999999943" y="27" as="targetPoint" />
          </mxGeometry>
        </mxCell>
        <mxCell id="agojiYEhN3OgMZIlrfLc-5" value="" style="endArrow=none;html=1;rounded=0;" edge="1" parent="agojiYEhN3OgMZIlrfLc-2">
          <mxGeometry width="50" height="50" relative="1" as="geometry">
            <mxPoint x="19.696666666666633" y="49.00000000000003" as="sourcePoint" />
            <mxPoint x="19.696666666666633" y="27" as="targetPoint" />
          </mxGeometry>
        </mxCell>
        <mxCell id="agojiYEhN3OgMZIlrfLc-6" value="" style="endArrow=none;html=1;rounded=0;" edge="1" parent="agojiYEhN3OgMZIlrfLc-2">
          <mxGeometry width="50" height="50" relative="1" as="geometry">
            <mxPoint x="30.063333333333272" y="49.00000000000003" as="sourcePoint" />
            <mxPoint x="30.063333333333272" y="27" as="targetPoint" />
          </mxGeometry>
        </mxCell>
        <mxCell id="agojiYEhN3OgMZIlrfLc-7" value="" style="endArrow=none;html=1;rounded=0;" edge="1" parent="agojiYEhN3OgMZIlrfLc-2">
          <mxGeometry width="50" height="50" relative="1" as="geometry">
            <mxPoint x="41.466666666666605" y="49.00000000000003" as="sourcePoint" />
            <mxPoint x="41.466666666666605" y="27" as="targetPoint" />
          </mxGeometry>
        </mxCell>
        <mxCell id="agojiYEhN3OgMZIlrfLc-8" value="" style="endArrow=none;html=1;rounded=0;" edge="1" parent="agojiYEhN3OgMZIlrfLc-2">
          <mxGeometry width="50" height="50" relative="1" as="geometry">
            <mxPoint x="9.703199999999828" y="22.000000000000004" as="sourcePoint" />
            <mxPoint x="9.703199999999828" as="targetPoint" />
          </mxGeometry>
        </mxCell>
        <mxCell id="agojiYEhN3OgMZIlrfLc-9" value="" style="endArrow=none;html=1;rounded=0;" edge="1" parent="agojiYEhN3OgMZIlrfLc-2">
          <mxGeometry width="50" height="50" relative="1" as="geometry">
            <mxPoint x="20.06986666666652" y="22.000000000000004" as="sourcePoint" />
            <mxPoint x="20.06986666666652" as="targetPoint" />
          </mxGeometry>
        </mxCell>
        <mxCell id="agojiYEhN3OgMZIlrfLc-10" value="" style="endArrow=none;html=1;rounded=0;" edge="1" parent="agojiYEhN3OgMZIlrfLc-2">
          <mxGeometry width="50" height="50" relative="1" as="geometry">
            <mxPoint x="30.43653333333321" y="22.000000000000004" as="sourcePoint" />
            <mxPoint x="30.43653333333321" as="targetPoint" />
          </mxGeometry>
        </mxCell>
        <mxCell id="agojiYEhN3OgMZIlrfLc-11" value="" style="endArrow=none;html=1;rounded=0;" edge="1" parent="agojiYEhN3OgMZIlrfLc-2">
          <mxGeometry width="50" height="50" relative="1" as="geometry">
            <mxPoint x="41.839866666666545" y="22.000000000000004" as="sourcePoint" />
            <mxPoint x="41.839866666666545" as="targetPoint" />
          </mxGeometry>
        </mxCell>
        <mxCell id="agojiYEhN3OgMZIlrfLc-12" value="" style="shape=trapezoid;perimeter=trapezoidPerimeter;whiteSpace=wrap;html=1;fixedSize=1;rotation=60;fillColor=#f5f5f5;fontColor=#333333;strokeColor=#B3B3B3;size=11.25;" vertex="1" parent="1">
          <mxGeometry x="236.56999999999994" y="-780.88" width="51.25" height="99.32" as="geometry" />
        </mxCell>
      </root>
    </mxGraphModel>
  </diagram>
</mxfile>
